<svg width="18" height="15" viewBox="0 0 18 15" fill="none" xmlns="http://www.w3.org/2000/svg">
<path d="M18 1.89185C17.3375 2.17606 16.6233 2.36282 15.8834 2.45214C16.6405 2.02178 17.2256 1.33968 17.501 0.519547C16.7868 0.925555 15.9952 1.20976 15.1606 1.37216C14.4809 0.67383 13.5258 0.267822 12.4417 0.267822C10.4197 0.267822 8.76769 1.82689 8.76769 3.75137C8.76769 4.02745 8.8021 4.29542 8.86233 4.54714C5.79924 4.40098 3.0717 3.01243 1.25621 0.909314C0.937859 1.42088 0.75717 2.02178 0.75717 2.65515C0.75717 3.86505 1.40249 4.93691 2.40057 5.54592C1.78967 5.54592 1.2218 5.38352 0.722754 5.13991V5.16427C0.722754 6.85327 1.99618 8.26617 3.6826 8.58286C3.14116 8.72269 2.57274 8.74215 2.02199 8.6397C2.25568 9.33193 2.71337 9.93763 3.3307 10.3717C3.94804 10.8057 4.69398 11.0463 5.46367 11.0595C4.15896 12.0343 2.54168 12.5612 0.877629 12.5536C0.585086 12.5536 0.292543 12.5374 0 12.5049C1.6348 13.4956 3.57935 14.0721 5.66157 14.0721C12.4417 14.0721 16.1673 8.7615 16.1673 4.15738C16.1673 4.00309 16.1673 3.85693 16.1587 3.70265C16.8815 3.21544 17.501 2.59831 18 1.89185Z" fill="white"/>
</svg>
